<?xml version="1.0" encoding="UTF-8"?>
<svg id="Layer_2" data-name="Layer 2" xmlns="http://www.w3.org/2000/svg" viewBox="0 0 15.66 15.66">
  <g id="Layer_24" data-name="Layer 24">
    <g>
      <path d="m13.33,0H2.33C1.05,0,0,1.05,0,2.33v11c0,1.29,1.05,2.33,2.33,2.33h11c1.29,0,2.33-1.05,2.33-2.33V2.33c0-1.29-1.05-2.33-2.33-2.33Zm-5.25.5h2.03v2.03h-2.03V.5ZM3.03.5h2.03v2.03h-2.03V.5Zm-.5,12.14H.5v-2.03h2.03v2.03Zm0-2.53H.5v-2.03h2.03v2.03Zm0-5.05H.5v-2.03h2.03v2.03Zm0-2.53H.5v-.2c0-1.01.82-1.83,1.83-1.83h.2v2.03Zm2.53,12.64h-2.03v-2.03h2.03v2.03Zm2.53,0h-2.03v-2.03h2.03v2.03Zm.25-6.03c-1.29,0-2.51.69-3.17,1.8-.11.18-.34.24-.51.13s-.24-.34-.13-.51c.54-.91,1.4-1.58,2.38-1.92-.54-.42-.89-1.07-.89-1.8,0-1.27,1.03-2.3,2.3-2.3s2.3,1.03,2.3,2.3c0,.73-.34,1.37-.87,1.79,1,.34,1.87,1.01,2.42,1.94.11.18.05.41-.13.51-.06.04-.13.05-.19.05-.13,0-.25-.07-.32-.18-.66-1.12-1.88-1.81-3.18-1.81Zm4.81,6.03h-2.03v-2.03h2.03v2.03Zm0-12.64h-2.03V.5h2.03v2.03Zm2.53,10.8c0,1.01-.82,1.83-1.83,1.83h-.2v-2.03h2.03v.2Zm0-.7h-2.03v-2.03h2.03v2.03Zm0-5.05h-2.03v-2.03h2.03v2.03Zm0-2.53h-2.03v-2.03h2.03v2.03Z"/>
      <path d="m7.8,8.38c.85,0,1.55-.7,1.55-1.55s-.7-1.55-1.55-1.55-1.55.7-1.55,1.55.7,1.55,1.55,1.55Z"/>
    </g>
  </g>
</svg>