<?xml version="1.0" encoding="UTF-8"?>
<svg id="Layer_2" data-name="Layer 2" xmlns="http://www.w3.org/2000/svg" viewBox="0 0 15.66 15.66">
  <g id="Layer_22" data-name="Layer 22">
    <g>
      <path d="m5.92,5.8c-.71.09-1.2.74-1.11,1.45.09.71.74,1.2,1.45,1.11.71-.09,1.2-.74,1.11-1.45-.09-.71-.74-1.2-1.45-1.11Z"/>
      <path d="m13.33,0H2.33C1.05,0,0,1.05,0,2.33v11c0,1.29,1.05,2.33,2.33,2.33h11c1.29,0,2.33-1.05,2.33-2.33V2.33c0-1.29-1.05-2.33-2.33-2.33Zm-5.25.5h2.03v2.03h-2.03V.5ZM3.03.5h2.03v2.03h-2.03V.5Zm-.5,12.14H.5v-2.03h2.03v2.03Zm0-2.53H.5v-2.03h2.03v2.03Zm0-5.05H.5v-2.03h2.03v2.03Zm0-2.53H.5v-.2c0-1.01.82-1.83,1.83-1.83h.2v2.03Zm2.53,12.64h-2.03v-2.03h2.03v2.03Zm2.53,0h-2.03v-2.03h2.03v2.03Zm2.09-5.43c.11.14.08.33-.05.44-.05.04-.1.06-.15.06-.11.01-.21-.03-.29-.12-.67-.85-1.75-1.29-2.82-1.15-1.07.14-2,.84-2.42,1.83-.07.16-.25.23-.41.16-.16-.07-.23-.25-.16-.41.35-.81.98-1.46,1.75-1.84-.49-.29-.85-.78-.93-1.39-.14-1.05.6-2.01,1.65-2.15,1.05-.14,2.01.6,2.15,1.65.04.33,0,.65-.12.95.4-.3.86-.48,1.35-.55-.29-.34-.44-.8-.35-1.27.16-.81.95-1.33,1.76-1.17.81.16,1.33.95,1.17,1.76-.09.47-.4.83-.79,1.03.6.34,1.07.87,1.31,1.54.04.13-.02.27-.15.31-.04.02-.09.02-.13,0-.08-.02-.15-.07-.18-.16-.28-.8-.97-1.39-1.79-1.56-.82-.16-1.69.12-2.25.75,0,0-.02,0-.03.01.74.21,1.41.65,1.9,1.27Zm2.96,5.43h-2.03v-2.03h2.03v2.03Zm0-12.64h-2.03V.5h2.03v2.03Zm2.53,10.8c0,1.01-.82,1.83-1.83,1.83h-.2v-2.03h2.03v.2Zm0-.7h-2.03v-2.03h2.03v2.03Zm0-5.05h-2.03v-2.03h2.03v2.03Zm0-2.53h-2.03v-2.03h2.03v2.03Z"/>
      <path d="m10.13,7.23c.54.11,1.08-.25,1.18-.79.11-.54-.25-1.08-.79-1.18-.54-.11-1.08.25-1.18.79-.11.54.25,1.08.79,1.18Z"/>
    </g>
  </g>
</svg>